Coordinates
version=1
nRows=11
nColumns=40
inDegrees=yes

Units are S.I. units (second, meters, Newtons, ...)
Angles are in degrees.

endheader
time	pelvis_tilt	pelvis_list	pelvis_rotation	pelvis_tx	pelvis_ty	pelvis_tz	hip_flexion_r	hip_adduction_r	hip_rotation_r	knee_angle_r	knee_angle_r_beta	ankle_angle_r	subtalar_angle_r	mtp_angle_r	hip_flexion_l	hip_adduction_l	hip_rotation_l	knee_angle_l	knee_angle_l_beta	ankle_angle_l	subtalar_angle_l	mtp_angle_l	lumbar_extension	lumbar_bending	lumbar_rotation	arm_flex_r	arm_add_r	arm_rot_r	elbow_flex_r	pro_sup_r	wrist_flex_r	wrist_dev_r	arm_flex_l	arm_add_l	arm_rot_l	elbow_flex_l	pro_sup_l	wrist_flex_l	wrist_dev_l
     32.40000000	     -5.39055644	     -4.11496629	     -3.98558346	      1.06453152	      0.92842622	      0.45910265	     25.04905514	     -6.30708759	     -3.46741332	     69.48580646	     69.48580646	     -0.11101917	    -15.19235973	     -1.10846070	     16.56297470	     -6.18904413	     -8.47677342	     24.94411913	     24.94411913	     15.24553001	    -12.27527020	      2.95995994	     -8.41824394	      7.19047093	      2.52466735	     14.24842519	    -12.62227577	     -7.03542722	     78.84494677	     44.72401883	      0.00000000	      0.00000000	      4.09043857	    -13.06646760	      3.05980512	     58.11844374	     45.66201322	      0.00000000	      0.00000000
     32.41135714	     -5.22196446	     -4.13620799	     -4.42796738	      1.06378027	      0.92983459	      0.45892794	     26.71223867	     -6.09359193	     -3.51938397	     69.68620095	     69.68620095	      0.01923130	    -15.15360799	     -1.38082813	     15.10211619	     -6.02732724	     -8.59758285	     23.85741175	     23.85741175	     15.35783336	    -12.64388079	      3.22115360	     -8.60173628	      7.14761342	      2.64672111	     12.66724369	    -12.43326728	     -7.26827793	     74.05872287	     44.90888574	      0.00000000	      0.00000000	      5.62977341	    -13.62624793	      3.18386807	     59.70335637	     45.74239030	      0.00000000	      0.00000000
     32.42271429	     -4.97721293	     -4.26534487	     -4.91222547	      1.06314213	      0.93114193	      0.45888458	     28.16574072	     -5.70494992	     -3.58807247	     69.67650277	     69.67650277	      0.16348518	    -15.13199494	     -1.31498749	     13.64420547	     -6.08857354	     -9.12155130	     22.99763137	     22.99763137	     15.61871866	    -12.49498194	      3.09043338	     -8.85060898	      7.26623919	      3.01414011	     11.15889644	    -12.52344445	     -7.27050522	     69.41178684	     45.07214261	      0.00000000	      0.00000000	      7.20785591	    -14.14934678	      3.08324103	     61.82299437	     45.83126045	      0.00000000	      0.00000000
     32.43407143	     -4.90008940	     -4.35458950	     -5.33731306	      1.06225370	      0.93222986	      0.45893224	     29.73076769	     -5.27388261	     -3.65376867	     69.43019227	     69.43019227	      0.27208840	    -15.13156905	     -0.89901041	     12.33289561	     -6.07408833	     -9.51441348	     21.96108858	     21.96108858	     15.67023198	    -12.30205411	      2.88837799	     -9.01095120	      7.22602427	      2.67012160	     10.60829624	    -12.11523548	     -7.23857720	     63.18941307	     45.29283561	      0.00000000	      0.00000000	      8.12637592	    -14.95256257	      3.00244240	     64.12369588	     45.94089698	      0.00000000	      0.00000000
     32.44542857	     -4.67738161	     -4.45928077	     -5.78730991	      1.06153318	      0.93334888	      0.45894378	     30.97611828	     -4.84637723	     -3.76250379	     68.79703021	     68.79703021	      0.22635193	    -15.03461408	     -0.66302408	     10.87088998	     -6.04132978	     -9.93705907	     20.96943231	     20.96943231	     15.88322452	    -12.12141693	      2.95240181	     -9.37573840	      7.27957544	      3.38493632	      8.71006854	    -12.56076914	     -7.05679987	     59.91824573	     45.39302160	      0.00000000	      0.00000000	      9.89806767	    -15.07893506	      2.49553870	     65.96090565	     46.03628574	      0.00000000	      0.00000000
     32.45678571	     -4.59438672	     -4.64478006	     -6.10859916	      1.06072984	      0.93407499	      0.45903116	     32.20332335	     -4.38385557	     -4.10187291	     67.82504788	     67.82504788	      0.47423164	    -14.69051742	     -0.00877647	      9.66327814	     -6.10511481	    -10.24500135	     20.08233304	     20.08233304	     15.82907314	    -12.08705823	      2.58364346	     -9.45650178	      7.42506791	      2.23241128	      9.58755130	    -11.79875105	     -6.82502411	     51.72087010	     45.66939999	      0.00000000	      0.00000000	     10.14398443	    -16.05808363	      1.20086983	     68.85451537	     46.30195520	      0.00000000	      0.00000000
     32.46814286	     -4.38267847	     -4.77741009	     -6.39610624	      1.06001496	      0.93467592	      0.45900684	     33.11978276	     -3.97950993	     -4.40754868	     66.38353669	     66.38353669	      0.52737118	    -14.33417577	      0.10238537	      8.37508716	     -6.09326047	    -10.55244797	     19.32789961	     19.32789961	     16.10125245	    -11.88812931	      2.59222750	     -9.79970146	      7.55673090	      2.80921959	      7.68587979	    -12.28023889	     -6.68704611	     48.84856195	     45.75609252	      0.00000000	      0.00000000	     11.96547738	    -16.13264375	      0.86892528	     70.54492399	     46.38155783	      0.00000000	      0.00000000
     32.47950000	     -4.32649296	     -4.91373126	     -6.60699178	      1.05922794	      0.93490729	      0.45904530	     34.02374776	     -3.60241835	     -4.83924122	     64.46979249	     64.46979249	      0.49728303	    -13.84107391	     -0.01312035	      7.28987791	     -6.09913945	    -10.79860742	     18.58708808	     18.58708808	     16.25670312	    -11.69819143	      2.30657682	     -9.85401248	      7.68016577	      2.42840623	      7.73896101	    -12.02200924	     -6.86474949	     41.97188602	     46.01121357	      0.00000000	      0.00000000	     13.04420402	    -16.99529575	      0.91154533	     72.59138832	     46.47894133	      0.00000000	      0.00000000
     32.49085714	     -4.20061529	     -5.08744837	     -6.77967750	      1.05853345	      0.93502449	      0.45907447	     34.62928515	     -3.19682728	     -5.29962016	     62.05218990	     62.05218990	      0.41031712	    -13.18631461	     -0.46093922	      6.13309335	     -6.12739522	    -11.00557492	     17.86142243	     17.86142243	     16.43348207	    -11.53985405	      2.06028216	    -10.05374795	      7.87501263	      2.10639026	      7.17467596	    -11.96690837	     -7.28712221	     36.89708648	     46.20781438	      0.00000000	      0.00000000	     14.05858678	    -17.34050782	     -0.24808929	     74.93752400	     46.68252853	      0.00000000	      0.00000000
     32.50221429	     -4.11185624	     -5.22116506	     -6.89971195	      1.05787215	      0.93488766	      0.45908099	     35.08353245	     -2.86362953	     -5.80829900	     59.18368678	     59.18368678	      0.48931346	    -12.22814908	     -0.55474817	      5.04082111	     -6.11253527	    -11.18872993	     17.16921745	     17.16921745	     16.71711734	    -11.28106355	      1.96100493	    -10.25855512	      8.06743509	      2.43142907	      5.31432083	    -12.36512514	     -7.37662607	     34.48593156	     46.29163637	      0.00000000	      0.00000000	     15.63644454	    -17.38658651	     -0.74141001	     76.70222215	     46.77595292	      0.00000000	      0.00000000
     32.51357143	     -4.17460641	     -5.38235753	     -6.93797574	      1.05719019	      0.93423780	      0.45913896	     35.51764664	     -2.46653968	     -6.31129788	     55.92739429	     55.92739429	      0.64577896	    -11.14416508	     -0.46124993	      4.22659061	     -6.16758090	    -11.21104189	     16.68326968	     16.68326968	     17.07010524	    -11.07192513	      1.82352997	    -10.21700223	      8.35003014	      2.19649109	      3.40364705	    -12.61714390	     -7.42655914	     32.95573133	     46.34160606	      0.00000000	      0.00000000	     17.04493887	    -17.85516110	     -1.19356155	     77.86128752	     46.83918675	      0.00000000	      0.00000000
